<svg width="56" height="56" viewBox="0 0 56 56" fill="none" xmlns="http://www.w3.org/2000/svg">
<rect width="56" height="56" rx="11" fill="#F6F6F6"/>
<path d="M37.47 27.1849L36.44 25.7549C36.2095 25.4312 35.9051 25.167 35.552 24.9844C35.199 24.8018 34.8075 24.706 34.41 24.7049H30.03V22.5649C30.03 21.9019 29.7666 21.266 29.2978 20.7972C28.8289 20.3283 28.193 20.0649 27.53 20.0649H20.56C19.8975 20.0668 19.2627 20.3308 18.7943 20.7992C18.3258 21.2677 18.0618 21.9025 18.06 22.5649V32.5049C18.06 32.9028 18.218 33.2843 18.4993 33.5656C18.7806 33.8469 19.1622 34.0049 19.56 34.0049H20.78C20.8555 34.54 21.1217 35.0297 21.5296 35.3841C21.9375 35.7385 22.4597 35.9336 23 35.9336C23.5403 35.9336 24.0625 35.7385 24.4704 35.3841C24.8783 35.0297 25.1445 34.54 25.22 34.0049H30.78C30.8555 34.54 31.1217 35.0297 31.5296 35.3841C31.9375 35.7385 32.4597 35.9336 33 35.9336C33.5403 35.9336 34.0625 35.7385 34.4704 35.3841C34.8783 35.0297 35.1445 34.54 35.22 34.0049H36.44C36.8378 34.0049 37.2194 33.8469 37.5007 33.5656C37.782 33.2843 37.94 32.9028 37.94 32.5049V28.6349C37.9376 28.1146 37.7733 27.6078 37.47 27.1849ZM23 34.9349C22.7528 34.9349 22.5111 34.8616 22.3055 34.7243C22.1 34.5869 21.9398 34.3917 21.8452 34.1633C21.7505 33.9349 21.7258 33.6836 21.774 33.4411C21.8223 33.1986 21.9413 32.9759 22.1161 32.8011C22.2909 32.6262 22.5137 32.5072 22.7561 32.459C22.9986 32.4107 23.2499 32.4355 23.4784 32.5301C23.7068 32.6247 23.902 32.7849 24.0393 32.9905C24.1767 33.196 24.25 33.4377 24.25 33.6849C24.25 34.0165 24.1183 34.3344 23.8839 34.5688C23.6495 34.8032 23.3315 34.9349 23 34.9349ZM29.03 33.0049H25.15C25.0044 32.5491 24.7177 32.1513 24.3312 31.869C23.9447 31.5867 23.4786 31.4346 23 31.4346C22.5214 31.4346 22.0553 31.5867 21.6688 31.869C21.2823 32.1513 20.9956 32.5491 20.85 33.0049H19.56C19.4274 33.0049 19.3002 32.9523 19.2064 32.8585C19.1127 32.7647 19.06 32.6375 19.06 32.5049V22.5649C19.06 22.1671 19.218 21.7856 19.4993 21.5043C19.7806 21.223 20.1622 21.0649 20.56 21.0649H27.53C27.9278 21.0649 28.3094 21.223 28.5907 21.5043C28.872 21.7856 29.03 22.1671 29.03 22.5649V33.0049ZM33 34.9349C32.7528 34.9349 32.5111 34.8616 32.3055 34.7243C32.1 34.5869 31.9398 34.3917 31.8452 34.1633C31.7505 33.9349 31.7258 33.6836 31.774 33.4411C31.8223 33.1986 31.9413 32.9759 32.1161 32.8011C32.2909 32.6262 32.5137 32.5072 32.7561 32.459C32.9986 32.4107 33.2499 32.4355 33.4784 32.5301C33.7068 32.6247 33.902 32.7849 34.0393 32.9905C34.1767 33.196 34.25 33.4377 34.25 33.6849C34.25 34.0165 34.1183 34.3344 33.8839 34.5688C33.6495 34.8032 33.3315 34.9349 33 34.9349ZM36.94 32.5049C36.94 32.6375 36.8873 32.7647 36.7936 32.8585C36.6998 32.9523 36.5726 33.0049 36.44 33.0049H35.15C35.0044 32.5491 34.7177 32.1513 34.3312 31.869C33.9447 31.5867 33.4786 31.4346 33 31.4346C32.5214 31.4346 32.0553 31.5867 31.6688 31.869C31.2823 32.1513 30.9956 32.5491 30.85 33.0049H30.03V25.7049H34.41C34.6486 25.7065 34.8834 25.7644 35.0954 25.8739C35.3074 25.9834 35.4906 26.1413 35.63 26.3349L36.66 27.7649C36.84 28.0196 36.9377 28.3232 36.94 28.6349V32.5049Z" fill="#797979"/>
<path d="M34.029 28.2048H32.029C31.8964 28.2048 31.7692 28.1522 31.6754 28.0584C31.5817 27.9646 31.529 27.8374 31.529 27.7048C31.529 27.5722 31.5817 27.445 31.6754 27.3513C31.7692 27.2575 31.8964 27.2048 32.029 27.2048H34.029C34.1616 27.2048 34.2888 27.2575 34.3826 27.3513C34.4763 27.445 34.529 27.5722 34.529 27.7048C34.529 27.8374 34.4763 27.9646 34.3826 28.0584C34.2888 28.1522 34.1616 28.2048 34.029 28.2048Z" fill="#797979"/>
</svg>
