<svg width="16" height="16" viewBox="0 0 16 16" fill="none" xmlns="http://www.w3.org/2000/svg">
<g clip-path="url(#clip0_2015_4901)">
<path d="M8.00001 14.6667C6.57052 14.6667 5.54183 14.666 4.73981 14.5882C3.94698 14.5113 3.43981 14.3636 3.03506 14.1093C2.57246 13.8187 2.18129 13.4275 1.89062 12.965C1.63637 12.5602 1.4886 12.053 1.41183 11.2602C1.33405 10.4582 1.33334 9.42951 1.33334 8.00001C1.33334 6.57052 1.33405 5.54183 1.41183 4.73981C1.4886 3.94698 1.63637 3.43981 1.89062 3.03506C2.18128 2.57245 2.57245 2.18128 3.03506 1.89062C3.43981 1.63637 3.94698 1.4886 4.73981 1.41183C5.54173 1.33405 6.57041 1.33334 8.00001 1.33334C9.42951 1.33334 10.4582 1.33405 11.2602 1.41183C12.053 1.4886 12.5602 1.63637 12.965 1.89062C13.4275 2.18129 13.8187 2.57246 14.1093 3.03506C14.3636 3.43981 14.5113 3.94698 14.5882 4.73981C14.666 5.54183 14.6667 6.57052 14.6667 8.00001C14.6667 9.42951 14.666 10.4582 14.5882 11.2602C14.5113 12.053 14.3636 12.5602 14.1093 12.965C13.8187 13.4275 13.4275 13.8187 12.965 14.1093C12.5602 14.3636 12.053 14.5113 11.2602 14.5882C10.4582 14.666 9.42951 14.6667 8.00001 14.6667Z" fill="white" stroke="white" stroke-width="2"/>
<path d="M8.00001 11.3333C9.47277 11.3333 10.6667 10.1394 10.6667 8.66667C10.6667 7.19391 9.47277 6 8.00001 6C6.52725 6 5.33334 7.19391 5.33334 8.66667C5.33334 10.1394 6.52725 11.3333 8.00001 11.3333Z" fill="white" stroke="black" stroke-width="2"/>
<path d="M11.25 5.5C11.6642 5.5 12 5.16421 12 4.75C12 4.33579 11.6642 4 11.25 4C10.8358 4 10.5 4.33579 10.5 4.75C10.5 5.16421 10.8358 5.5 11.25 5.5Z" fill="black"/>
</g>
<defs>
<clipPath id="clip0_2015_4901">
<rect width="16" height="16" fill="white"/>
</clipPath>
</defs>
</svg>
